<svg width="525" height="540" viewBox="0 0 525 540" fill="none" xmlns="http://www.w3.org/2000/svg">
<path d="M158.781 110.457L157.16 111.821L156.654 113.878C139.533 183.496 123.426 219.429 83.1766 278.088L27.8582 308.632L23.4307 311.077L24.7121 315.969C31.793 343.004 34.4733 357.931 34.939 385.2L34.9691 386.968L35.8907 388.477C63.2488 433.274 88.7434 456.445 123.415 472.552C148.531 484.22 178.6 492.185 217.228 502.417C230.76 506.002 245.341 509.864 261.129 514.262L262.671 514.691L264.237 514.355C349.544 496.038 397.484 476.636 428.245 455.536C455.387 436.92 468.859 417.111 482.441 397.142C484.331 394.362 486.224 391.579 488.156 388.796L489.291 387.16L489.316 385.17C489.661 357.332 491.435 342.427 500.163 316.388L501.904 311.194L497.08 308.598L440.367 278.088C400.781 218.044 384.706 182.099 367.593 113.849L367.082 111.81L365.473 110.457L266.312 27.0263L262.127 23.5054L257.942 27.0263L158.781 110.457Z" fill="#1E1E1E" stroke="#AD1DDE" stroke-width="13"/>
<path d="M86 397.758V362C102.13 409.171 136.502 433.474 195 473C127.808 452.886 112.13 449.906 86 397.758Z" fill="#5C0F75"/>
<path d="M99 292.513C110.362 332.627 121.577 350.331 144.258 381C128.671 349.761 121.258 332.667 113.097 298.462C144.077 252.638 160.531 226.013 180.613 169.077L191 182.462L184.323 204.026L200.645 172.795L185.806 137.846L214 91L175.419 123.718C151.471 212.987 132.938 242.815 99 292.513Z" fill="white"/>
<path d="M232.2 76.1346L214.32 91.0131L186.01 137.88L200.91 172.845L184.52 203.346L191.225 182.516L180.795 169.125C160.776 222.973 145.798 251.247 113 298.568C121.553 333.749 128.743 351.558 144.29 381.144L141.31 358.826L191.97 406.437L180.795 403.462C211.201 432.099 228.819 445.291 262 460V430.987C235.956 410.508 222.143 397.813 199.42 372.217L202.4 362.546L179.305 307.495V346.179L157.7 297.824C187.368 258.414 201.542 234.541 215.81 184.004C233.023 166.913 243.001 158.905 261.255 146.807V62C250.789 66.6589 244.528 69.6553 232.2 76.1346Z" fill="#AD1DDE"/>
<path d="M262.04 51L232.337 75.6L261.297 146.418C242.167 159.357 232.106 167.358 216 183.691C233.504 173.343 243.429 167.984 262.04 162.073C281.464 169.186 291.985 174.113 309.564 185.927C323.521 235.154 336.835 258.781 366 297C339.538 247.161 330.965 217.365 322.931 162.073C304.577 150.993 294.177 145.245 275.406 135.982V96.4727L261.297 77.8364L348.178 122.564L262.04 51Z" fill="#5C0F75"/>
<path d="M51.4762 344L94 323.75L85.7937 302C71.125 312.523 62.6695 317.588 47 324.5L51.4762 344Z" fill="white"/>
<path d="M56.4694 380.765L52 344.167L94.4592 324C104.547 345.412 110.725 357.3 125 377.778L108.849 375.286C106.729 374.959 104.705 374.182 102.911 373.006L86.2653 362.093V397.198C96.7367 417.381 101.908 429.315 121.276 445C104.143 440.519 86.994 423.555 56.4694 380.765Z" fill="#AD2CDB"/>
<path d="M137 391C111.196 387.979 100.198 381.391 86 362C98.75 369.436 109.25 375.385 125 377.615L137 391Z" fill="#5F0E75"/>
<path d="M170.793 397.024L141 359L191.648 406.716L180.476 403.734C209.549 430.763 226.533 444.646 261.662 460.396C301.403 443.048 321.635 430.132 357 405.97C323.296 442.824 302.892 460.927 261.662 485C219.902 459.449 199.469 441.114 164.834 405.97L170.793 397.024Z" fill="#5C0F75"/>
<path d="M459.413 341.608L449.838 380.544C421.494 431.525 389.178 447.408 328 473C397.124 454.102 430.238 442.281 465.806 383.62C467.61 380.645 468.619 377.234 468.852 373.762C470.126 354.722 472.078 343.083 476 323.877C459.645 317.123 451.618 312.248 437.879 303C433.538 310.518 431.176 314.812 428.909 324.623C441.943 328.345 448.844 331.479 459.106 340.624C459.381 340.869 459.501 341.25 459.413 341.608Z" fill="#5C0F75"/>
<path d="M324 269C303.486 275.375 292.541 280.628 274 293C285.38 291.988 292.451 291.583 302.802 289.658C306.601 288.951 310.227 287.36 313.051 284.721C318.117 279.987 320.507 275.692 324 269Z" fill="#AD1DDE"/>
</svg>
